ffmpeg started on 2025-06-20 at 17:13:46
Report written to "D:\Convert\FFMetrics\reports\ssim_report-6.txt"
Log level: 32
Command line:
ffmpeg -hide_banner -nostdin -i "G:\\\xc0\xed\xe8\xec\xe5\\[\xd2\xee\xef]\\\xc2\xee\xeb\xf7\xe8\xf6\xe0 \xe8 \xef\xf0\xff\xed\xee\xf1\xf2\xe8\\\xd2\xee\xf0\xe3\xee\xe2\xe5\xf6 \xe2\xf1\xf2\xf0\xe5\xf7\xe0\xe5\xf2 \xec\xf3\xe4\xf0\xf3\xfe \xe2\xee\xeb\xf7\xe8\xf6\xf3\\DC_Ookami_to_Koushinryou_Merchant_Meets_the_Wise_Wolf_15_Telegram_HEVC.mkv" -i "G:\\\xc0\xed\xe8\xec\xe5\\[\xd2\xee\xef]\\\xc2\xee\xeb\xf7\xe8\xf6\xe0 \xe8 \xef\xf0\xff\xed\xee\xf1\xf2\xe8\\\xd2\xee\xf0\xe3\xee\xe2\xe5\xf6 \xe2\xf1\xf2\xf0\xe5\xf7\xe0\xe5\xf2 \xec\xf3\xe4\xf0\xf3\xfe \xe2\xee\xeb\xf7\xe8\xf6\xf3\\DC_Ookami_to_Koushinryou_Merchant_Meets_the_Wise_Wolf_15_Telegram.mp4" -lavfi "[0:v]settb=AVTB,setpts=PTS-STARTPTS,format=pix_fmts=yuv420p10,fps=24000/1001,scale=1920:1080:flags=bicubic[main];[1:v]settb=AVTB,setpts=PTS-STARTPTS,format=pix_fmts=yuv420p,fps=24000/1001,scale=1920:1080:flags=bicubic[ref];[main][ref]ssim=eof_action=endall:stats_file='D\\:/Convert/FFMetrics/logs/ssim_logfile-6.txt'" -f null -
Input #0, matroska,webm, from 'G:\Аниме\[Топ]\Волчица и пряности\Торговец встречает мудрую волчицу\DC_Ookami_to_Koushinryou_Merchant_Meets_the_Wise_Wolf_15_Telegram_HEVC.mkv':
  Metadata:
    COMPATIBLE_BRANDS: isomiso2avc1mp41
    MAJOR_BRAND     : isom
    MINOR_VERSION   : 512
    ENCODER         : Lavf61.7.100
  Duration: 00:23:57.74, start: -0.021000, bitrate: 766 kb/s
  Stream #0:0: Video: hevc (Main 10), yuv420p10le(tv, bt709, progressive), 1920x1080 [SAR 1:1 DAR 16:9], 23.98 fps, 23.98 tbr, 1k tbn (default)
      Metadata:
        HANDLER_NAME    : VideoHandler
        VENDOR_ID       : [0][0][0][0]
        ENCODER         : Lavc61.19.100 libx265
        BPS             : 570411
        DURATION        : 00:23:56.643708333
        NUMBER_OF_FRAMES: 34445
        NUMBER_OF_BYTES : 102434672
        _STATISTICS_WRITING_APP: mkvpropedit v66.0.0 ('Josie') 64-bit
        _STATISTICS_WRITING_DATE_UTC: 2025-06-20 11:38:00
        _STATISTICS_TAGS: BPS DURATION NUMBER_OF_FRAMES NUMBER_OF_BYTES
  Stream #0:1: Audio: aac (LC), 48000 Hz, stereo, fltp (default)
      Metadata:
        HANDLER_NAME    : SoundHandler
        VENDOR_ID       : [0][0][0][0]
        ENCODER         : Lavc61.19.100 aac
        BPS             : 192770
        DURATION        : 00:23:57.738000000
        NUMBER_OF_FRAMES: 67395
        NUMBER_OF_BYTES : 34644114
        _STATISTICS_WRITING_APP: mkvpropedit v66.0.0 ('Josie') 64-bit
        _STATISTICS_WRITING_DATE_UTC: 2025-06-20 11:38:00
        _STATISTICS_TAGS: BPS DURATION NUMBER_OF_FRAMES NUMBER_OF_BYTES
Input #1, mov,mp4,m4a,3gp,3g2,mj2, from 'G:\Аниме\[Топ]\Волчица и пряности\Торговец встречает мудрую волчицу\DC_Ookami_to_Koushinryou_Merchant_Meets_the_Wise_Wolf_15_Telegram.mp4':
  Metadata:
    major_brand     : isom
    minor_version   : 512
    compatible_brands: isomiso2avc1mp41
    encoder         : Lavf61.1.100
  Duration: 00:23:57.71, start: 0.000000, bitrate: 3193 kb/s
  Stream #1:0[0x1](und): Video: h264 (High) (avc1 / 0x31637661), yuv420p(tv, bt709, progressive), 1920x1080 [SAR 1:1 DAR 16:9], 3047 kb/s, 23.98 fps, 23.98 tbr, 24k tbn (default)
      Metadata:
        handler_name    : VideoHandler
        vendor_id       : [0][0][0][0]
        encoder         : Lavc61.3.100 h264_qsv
  Stream #1:1[0x2](und): Audio: aac (HE-AACv2) (mp4a / 0x6134706D), 48000 Hz, stereo, fltp, 144 kb/s (default)
      Metadata:
        handler_name    : SoundHandler
        vendor_id       : [0][0][0][0]
Stream mapping:
  Stream #0:0 (hevc) -> settb:default
  Stream #1:0 (h264) -> settb:default
  ssim:default -> Stream #0:0 (wrapped_avframe)
  Stream #0:1 -> #0:1 (aac (native) -> pcm_s16le (native))
Output #0, null, to 'pipe:':
  Metadata:
    COMPATIBLE_BRANDS: isomiso2avc1mp41
    MAJOR_BRAND     : isom
    MINOR_VERSION   : 512
    encoder         : Lavf61.7.100
  Stream #0:0: Video: wrapped_avframe, yuv420p10le(tv, bt709, progressive), 1920x1080 [SAR 1:1 DAR 16:9], q=2-31, 200 kb/s, 23.98 fps, 23.98 tbn
      Metadata:
        encoder         : Lavc61.19.100 wrapped_avframe
  Stream #0:1: Audio: pcm_s16le, 48000 Hz, stereo, s16, 1536 kb/s (default)
      Metadata:
        HANDLER_NAME    : SoundHandler
        VENDOR_ID       : [0][0][0][0]
        _STATISTICS_TAGS: BPS DURATION NUMBER_OF_FRAMES NUMBER_OF_BYTES
        BPS             : 192770
        DURATION        : 00:23:57.738000000
        NUMBER_OF_FRAMES: 67395
        NUMBER_OF_BYTES : 34644114
        _STATISTICS_WRITING_APP: mkvpropedit v66.0.0 ('Josie') 64-bit
        _STATISTICS_WRITING_DATE_UTC: 2025-06-20 11:38:00
        encoder         : Lavc61.19.100 pcm_s16le
frame=  184 fps=0.0 q=-0.0 size=N/A time=00:00:07.67 bitrate=N/A speed=14.7x    frame=  443 fps=430 q=-0.0 size=N/A time=00:00:18.47 bitrate=N/A speed=17.9x    frame=  729 fps=468 q=-0.0 size=N/A time=00:00:30.40 bitrate=N/A speed=19.5x    frame=  947 fps=458 q=-0.0 size=N/A time=00:00:39.49 bitrate=N/A speed=19.1x    frame= 1144 fps=444 q=-0.0 size=N/A time=00:00:47.71 bitrate=N/A speed=18.5x    frame= 1354 fps=436 q=-0.0 size=N/A time=00:00:56.47 bitrate=N/A speed=18.2x    frame= 1557 fps=432 q=-0.0 size=N/A time=00:01:04.93 bitrate=N/A speed=  18x    frame= 1765 fps=427 q=-0.0 size=N/A time=00:01:13.61 bitrate=N/A speed=17.8x    frame= 1982 fps=427 q=-0.0 size=N/A time=00:01:22.66 bitrate=N/A speed=17.8x    frame= 2150 fps=416 q=-0.0 size=N/A time=00:01:29.67 bitrate=N/A speed=17.4x    frame= 2357 fps=415 q=-0.0 size=N/A time=00:01:38.30 bitrate=N/A speed=17.3x    frame= 2572 fps=415 q=-0.0 size=N/A time=00:01:47.27 bitrate=N/A speed=17.3x    frame= 2757 fps=411 q=-0.0 size=N/A time=00:01:54.98 bitrate=N/A speed=17.2x    frame= 2927 fps=405 q=-0.0 size=N/A time=00:02:02.08 bitrate=N/A speed=16.9x    frame= 3123 fps=404 q=-0.0 size=N/A time=00:02:10.25 bitrate=N/A speed=16.8x    frame= 3373 fps=409 q=-0.0 size=N/A time=00:02:20.68 bitrate=N/A speed=17.1x    frame= 3643 fps=415 q=-0.0 size=N/A time=00:02:31.94 bitrate=N/A speed=17.3x    frame= 3904 fps=420 q=-0.0 size=N/A time=00:02:42.82 bitrate=N/A speed=17.5x    frame= 4165 fps=425 q=-0.0 size=N/A time=00:02:53.71 bitrate=N/A speed=17.7x    frame= 4447 fps=431 q=-0.0 size=N/A time=00:03:05.47 bitrate=N/A speed=  18x    frame= 4733 fps=437 q=-0.0 size=N/A time=00:03:17.40 bitrate=N/A speed=18.2x    frame= 5013 fps=442 q=-0.0 size=N/A time=00:03:29.08 bitrate=N/A speed=18.4x    frame= 5275 fps=444 q=-0.0 size=N/A time=00:03:40.01 bitrate=N/A speed=18.5x    frame= 5569 fps=449 q=-0.0 size=N/A time=00:03:52.27 bitrate=N/A speed=18.7x    frame= 5837 fps=452 q=-0.0 size=N/A time=00:04:03.45 bitrate=N/A speed=18.9x    frame= 6112 fps=455 q=-0.0 size=N/A time=00:04:14.92 bitrate=N/A speed=  19x    frame= 6397 fps=459 q=-0.0 size=N/A time=00:04:26.80 bitrate=N/A speed=19.1x    frame= 6676 fps=462 q=-0.0 size=N/A time=00:04:38.44 bitrate=N/A speed=19.3x    frame= 6947 fps=464 q=-0.0 size=N/A time=00:04:49.74 bitrate=N/A speed=19.4x    frame= 7222 fps=466 q=-0.0 size=N/A time=00:05:01.21 bitrate=N/A speed=19.4x    frame= 7500 fps=469 q=-0.0 size=N/A time=00:05:12.81 bitrate=N/A speed=19.5x    frame= 7773 fps=470 q=-0.0 size=N/A time=00:05:24.19 bitrate=N/A speed=19.6x    frame= 8043 fps=472 q=-0.0 size=N/A time=00:05:35.46 bitrate=N/A speed=19.7x    frame= 8315 fps=474 q=-0.0 size=N/A time=00:05:46.80 bitrate=N/A speed=19.8x    frame= 8598 fps=476 q=-0.0 size=N/A time=00:05:58.60 bitrate=N/A speed=19.9x    frame= 8885 fps=478 q=-0.0 size=N/A time=00:06:10.57 bitrate=N/A speed=19.9x    frame= 9119 fps=477 q=-0.0 size=N/A time=00:06:20.33 bitrate=N/A speed=19.9x    frame= 9387 fps=479 q=-0.0 size=N/A time=00:06:31.51 bitrate=N/A speed=  20x    frame= 9617 fps=478 q=-0.0 size=N/A time=00:06:41.10 bitrate=N/A speed=19.9x    frame= 9894 fps=479 q=-0.0 size=N/A time=00:06:52.66 bitrate=N/A speed=  20x    frame=10167 fps=480 q=-0.0 size=N/A time=00:07:04.04 bitrate=N/A speed=  20x    frame=10448 fps=482 q=-0.0 size=N/A time=00:07:15.76 bitrate=N/A speed=20.1x    frame=10728 fps=483 q=-0.0 size=N/A time=00:07:27.44 bitrate=N/A speed=20.2x    frame=10997 fps=484 q=-0.0 size=N/A time=00:07:38.66 bitrate=N/A speed=20.2x    frame=11259 fps=485 q=-0.0 size=N/A time=00:07:49.59 bitrate=N/A speed=20.2x    frame=11539 fps=486 q=-0.0 size=N/A time=00:08:01.27 bitrate=N/A speed=20.3x    frame=11820 fps=487 q=-0.0 size=N/A time=00:08:12.99 bitrate=N/A speed=20.3x    frame=12073 fps=487 q=-0.0 size=N/A time=00:08:23.54 bitrate=N/A speed=20.3x    frame=12333 fps=488 q=-0.0 size=N/A time=00:08:34.38 bitrate=N/A speed=20.3x    frame=12605 fps=489 q=-0.0 size=N/A time=00:08:45.73 bitrate=N/A speed=20.4x    frame=12843 fps=488 q=-0.0 size=N/A time=00:08:55.66 bitrate=N/A speed=20.4x    frame=13068 fps=487 q=-0.0 size=N/A time=00:09:05.04 bitrate=N/A speed=20.3x    frame=13291 fps=486 q=-0.0 size=N/A time=00:09:14.34 bitrate=N/A speed=20.3x    frame=13545 fps=486 q=-0.0 size=N/A time=00:09:24.93 bitrate=N/A speed=20.3x    frame=13776 fps=486 q=-0.0 size=N/A time=00:09:34.57 bitrate=N/A speed=20.2x    frame=14027 fps=485 q=-0.0 size=N/A time=00:09:45.04 bitrate=N/A speed=20.2x    frame=14267 fps=485 q=-0.0 size=N/A time=00:09:55.05 bitrate=N/A speed=20.2x    frame=14551 fps=486 q=-0.0 size=N/A time=00:10:06.89 bitrate=N/A speed=20.3x    frame=14808 fps=486 q=-0.0 size=N/A time=00:10:17.61 bitrate=N/A speed=20.3x    frame=15091 fps=487 q=-0.0 size=N/A time=00:10:29.42 bitrate=N/A speed=20.3x    frame=15341 fps=487 q=-0.0 size=N/A time=00:10:39.84 bitrate=N/A speed=20.3x    frame=15583 fps=487 q=-0.0 size=N/A time=00:10:49.94 bitrate=N/A speed=20.3x    frame=15819 fps=487 q=-0.0 size=N/A time=00:10:59.78 bitrate=N/A speed=20.3x    frame=16080 fps=487 q=-0.0 size=N/A time=00:11:10.67 bitrate=N/A speed=20.3x    frame=16355 fps=488 q=-0.0 size=N/A time=00:11:22.13 bitrate=N/A speed=20.3x    frame=16622 fps=488 q=-0.0 size=N/A time=00:11:33.27 bitrate=N/A speed=20.4x    frame=16903 fps=489 q=-0.0 size=N/A time=00:11:44.99 bitrate=N/A speed=20.4x    frame=17175 fps=490 q=-0.0 size=N/A time=00:11:56.34 bitrate=N/A speed=20.4x    frame=17462 fps=490 q=-0.0 size=N/A time=00:12:08.31 bitrate=N/A speed=20.5x    frame=17737 fps=491 q=-0.0 size=N/A time=00:12:19.78 bitrate=N/A speed=20.5x    frame=18004 fps=492 q=-0.0 size=N/A time=00:12:30.91 bitrate=N/A speed=20.5x    frame=18274 fps=492 q=-0.0 size=N/A time=00:12:42.17 bitrate=N/A speed=20.5x    frame=18538 fps=492 q=-0.0 size=N/A time=00:12:53.18 bitrate=N/A speed=20.5x    frame=18788 fps=492 q=-0.0 size=N/A time=00:13:03.61 bitrate=N/A speed=20.5x    frame=19052 fps=492 q=-0.0 size=N/A time=00:13:14.62 bitrate=N/A speed=20.5x    frame=19329 fps=493 q=-0.0 size=N/A time=00:13:26.18 bitrate=N/A speed=20.6x    frame=19581 fps=493 q=-0.0 size=N/A time=00:13:36.69 bitrate=N/A speed=20.6x    frame=19853 fps=493 q=-0.0 size=N/A time=00:13:48.03 bitrate=N/A speed=20.6x    frame=20133 fps=494 q=-0.0 size=N/A time=00:13:59.71 bitrate=N/A speed=20.6x    frame=20405 fps=495 q=-0.0 size=N/A time=00:14:11.05 bitrate=N/A speed=20.6x    frame=20699 fps=495 q=-0.0 size=N/A time=00:14:23.32 bitrate=N/A speed=20.7x    frame=20966 fps=496 q=-0.0 size=N/A time=00:14:34.45 bitrate=N/A speed=20.7x    frame=21221 fps=496 q=-0.0 size=N/A time=00:14:45.09 bitrate=N/A speed=20.7x    frame=21490 fps=496 q=-0.0 size=N/A time=00:14:56.31 bitrate=N/A speed=20.7x    frame=21753 fps=496 q=-0.0 size=N/A time=00:15:07.28 bitrate=N/A speed=20.7x    frame=22038 fps=497 q=-0.0 size=N/A time=00:15:19.16 bitrate=N/A speed=20.7x    frame=22317 fps=497 q=-0.0 size=N/A time=00:15:30.80 bitrate=N/A speed=20.7x    frame=22562 fps=497 q=-0.0 size=N/A time=00:15:41.02 bitrate=N/A speed=20.7x    frame=22836 fps=497 q=-0.0 size=N/A time=00:15:52.45 bitrate=N/A speed=20.7x    frame=23113 fps=498 q=-0.0 size=N/A time=00:16:04.00 bitrate=N/A speed=20.8x    frame=23383 fps=498 q=-0.0 size=N/A time=00:16:15.26 bitrate=N/A speed=20.8x    frame=23668 fps=499 q=-0.0 size=N/A time=00:16:27.15 bitrate=N/A speed=20.8x    frame=23936 fps=499 q=-0.0 size=N/A time=00:16:38.33 bitrate=N/A speed=20.8x    frame=24222 fps=500 q=-0.0 size=N/A time=00:16:50.25 bitrate=N/A speed=20.8x    frame=24489 fps=500 q=-0.0 size=N/A time=00:17:01.39 bitrate=N/A speed=20.8x    frame=24762 fps=500 q=-0.0 size=N/A time=00:17:12.78 bitrate=N/A speed=20.9x    frame=25027 fps=500 q=-0.0 size=N/A time=00:17:23.83 bitrate=N/A speed=20.9x    frame=25312 fps=501 q=-0.0 size=N/A time=00:17:35.72 bitrate=N/A speed=20.9x    frame=25580 fps=501 q=-0.0 size=N/A time=00:17:46.89 bitrate=N/A speed=20.9x    frame=25858 fps=501 q=-0.0 size=N/A time=00:17:58.49 bitrate=N/A speed=20.9x    frame=26125 fps=501 q=-0.0 size=N/A time=00:18:09.63 bitrate=N/A speed=20.9x    frame=26404 fps=502 q=-0.0 size=N/A time=00:18:21.26 bitrate=N/A speed=20.9x    frame=26672 fps=502 q=-0.0 size=N/A time=00:18:32.44 bitrate=N/A speed=20.9x    frame=26941 fps=502 q=-0.0 size=N/A time=00:18:43.66 bitrate=N/A speed=20.9x    frame=27212 fps=502 q=-0.0 size=N/A time=00:18:54.96 bitrate=N/A speed=20.9x    frame=27466 fps=502 q=-0.0 size=N/A time=00:19:05.56 bitrate=N/A speed=20.9x    frame=27725 fps=502 q=-0.0 size=N/A time=00:19:16.36 bitrate=N/A speed=20.9x    frame=27988 fps=502 q=-0.0 size=N/A time=00:19:27.33 bitrate=N/A speed=20.9x    frame=28250 fps=502 q=-0.0 size=N/A time=00:19:38.26 bitrate=N/A speed=  21x    frame=28520 fps=502 q=-0.0 size=N/A time=00:19:49.52 bitrate=N/A speed=  21x    frame=28800 fps=503 q=-0.0 size=N/A time=00:20:01.20 bitrate=N/A speed=  21x    frame=29060 fps=503 q=-0.0 size=N/A time=00:20:12.04 bitrate=N/A speed=  21x    frame=29341 fps=503 q=-0.0 size=N/A time=00:20:23.76 bitrate=N/A speed=  21x    frame=29613 fps=504 q=-0.0 size=N/A time=00:20:35.10 bitrate=N/A speed=  21x    frame=29903 fps=504 q=-0.0 size=N/A time=00:20:47.20 bitrate=N/A speed=  21x    frame=30170 fps=504 q=-0.0 size=N/A time=00:20:58.34 bitrate=N/A speed=  21x    frame=30443 fps=504 q=-0.0 size=N/A time=00:21:09.72 bitrate=N/A speed=  21x    frame=30714 fps=504 q=-0.0 size=N/A time=00:21:21.02 bitrate=N/A speed=  21x    frame=30982 fps=505 q=-0.0 size=N/A time=00:21:32.20 bitrate=N/A speed=  21x    frame=31270 fps=505 q=-0.0 size=N/A time=00:21:44.21 bitrate=N/A speed=21.1x    frame=31525 fps=505 q=-0.0 size=N/A time=00:21:54.85 bitrate=N/A speed=21.1x    frame=31798 fps=505 q=-0.0 size=N/A time=00:22:06.24 bitrate=N/A speed=21.1x    frame=32037 fps=505 q=-0.0 size=N/A time=00:22:16.20 bitrate=N/A speed=21.1x    frame=32228 fps=504 q=-0.0 size=N/A time=00:22:24.17 bitrate=N/A speed=  21x    frame=32371 fps=502 q=-0.0 size=N/A time=00:22:30.14 bitrate=N/A speed=20.9x    frame=32605 fps=502 q=-0.0 size=N/A time=00:22:39.90 bitrate=N/A speed=20.9x    frame=32855 fps=501 q=-0.0 size=N/A time=00:22:50.32 bitrate=N/A speed=20.9x    frame=33094 fps=501 q=-0.0 size=N/A time=00:23:00.29 bitrate=N/A speed=20.9x    frame=33300 fps=500 q=-0.0 size=N/A time=00:23:08.88 bitrate=N/A speed=20.9x    frame=33504 fps=500 q=-0.0 size=N/A time=00:23:17.39 bitrate=N/A speed=20.8x    frame=33746 fps=499 q=-0.0 size=N/A time=00:23:27.48 bitrate=N/A speed=20.8x    frame=33998 fps=499 q=-0.0 size=N/A time=00:23:37.99 bitrate=N/A speed=20.8x    frame=34195 fps=498 q=-0.0 size=N/A time=00:23:46.21 bitrate=N/A speed=20.8x    frame=34368 fps=497 q=-0.0 size=N/A time=00:23:53.43 bitrate=N/A speed=20.7x    [Parsed_ssim_10 @ 0000020022b84d00] SSIM Y:0.994351 (22.480415) U:0.994961 (22.976325) V:0.995260 (23.241885) All:0.994604 (22.679421)
[out#0/null @ 0000020021bb54c0] video:14801KiB audio:269580KiB subtitle:0KiB other streams:0KiB global headers:0KiB muxing overhead: unknown
frame=34445 fps=497 q=-0.0 Lsize=N/A time=00:23:56.64 bitrate=N/A speed=20.7x    
